<?xml version="1.0"?>
<svg xmlns="http://www.w3.org/2000/svg" xmlns:xlink="http://www.w3.org/1999/xlink" xmlns:svgjs="http://svgjs.com/svgjs" version="1.1" width="512" height="512" x="0" y="0" viewBox="0 0 511.998 511.998" style="enable-background:new 0 0 512 512" xml:space="preserve" class=""><g><linearGradient xmlns="http://www.w3.org/2000/svg" id="SVGID_1_" gradientUnits="userSpaceOnUse" x1="255.999" x2="255.999" y1="511.998" y2="0"><stop stop-opacity="1" stop-color="#124160" offset="0"/><stop stop-opacity="1" stop-color="#0097fb" offset="1"/></linearGradient><linearGradient xmlns="http://www.w3.org/2000/svg" id="SVGID_2_" gradientUnits="userSpaceOnUse" x1="255.998" x2="255.998" y1="301" y2="211"><stop stop-opacity="1" stop-color="#8bbbd9" offset="0"/><stop stop-opacity="1" stop-color="#cfedff" offset="1"/></linearGradient><g xmlns="http://www.w3.org/2000/svg"><g><g><path d="m255.998 0c-140.61 0-255.998 115.39-255.998 256 0 48.94 14.797 96.182 40.988 137.153l-39.915 98.278c-2.227 5.566-.923 11.924 3.325 16.172 4.182 4.182 10.516 5.578 16.172 3.325l98.275-39.918c40.972 26.191 88.213 40.988 137.153 40.988 140.61 0 256-115.387 256-255.997s-115.39-256.001-256-256.001z" fill="url(#SVGID_1_)" data-original="url(#SVGID_1_)" style=""/></g></g><g><g><path d="m255.998 211c-24.814 0-45 20.186-45 45s20.186 45 45 45 45-20.186 45-45-20.186-45-45-45zm-120 0c-24.814 0-45 20.186-45 45s20.186 45 45 45 45-20.186 45-45-20.186-45-45-45zm240 0c-24.814 0-45 20.186-45 45s20.186 45 45 45 45-20.186 45-45-20.186-45-45-45z" fill="url(#SVGID_2_)" data-original="url(#SVGID_2_)" style=""/></g></g></g></g></svg>
