<?xml version="1.0" encoding="iso-8859-1"?>
<!-- Generator: Adobe Illustrator 19.0.0, SVG Export Plug-In . SVG Version: 6.00 Build 0)  -->
<svg version="1.1" id="Layer_1" xmlns="http://www.w3.org/2000/svg" xmlns:xlink="http://www.w3.org/1999/xlink" x="0px" y="0px"
	 viewBox="0 0 512.001 512.001" style="enable-background:new 0 0 512.001 512.001;" xml:space="preserve">
<path style="fill:#B9BDE6;" d="M159.761,49.821c-13.836,2.215-24.014,14.152-24.014,28.164v89.683v191.988
	c-11.765-5.77-25.141-8.757-39.279-8.07c-42.054,2.045-75.693,36.964-76.254,79.063c-0.596,44.825,35.56,81.349,80.247,81.349
	c44.323,0,80.255-35.932,80.255-80.255c0-0.094-0.006-0.185-0.008-0.279h0.104V184.774c0-14.012,10.178-25.949,24.014-28.164
	l219.518-35.144c11.745-1.881,22.385,7.192,22.385,19.086v154.873c-11.755-5.746-25.117-8.713-39.236-8.018
	c-41.047,2.021-74.283,35.403-76.127,76.457c-2.066,46.005,34.622,83.953,80.171,83.953c44.175,0,80.004-35.694,80.244-79.813h0.011
	V110.667V19.334c0-11.894-10.64-20.967-22.385-19.086L159.761,49.821z"/>
<g>
	<path style="fill:#ABB0E0;" d="M404.081,121.466L184.563,156.61c-13.836,2.215-24.014,14.152-24.014,28.164v246.693h-0.104
		c0,0.094,0.008,0.185,0.008,0.279c0,40.889-30.586,74.611-70.122,79.595c3.321,0.419,6.697,0.66,10.13,0.66
		c44.323,0,80.255-35.932,80.255-80.255c0-0.094-0.006-0.185-0.008-0.279h0.104V184.773c0-14.012,10.178-25.949,24.014-28.164
		l210.252-33.661C411.766,121.448,407.989,120.84,404.081,121.466z"/>
	<path style="fill:#ABB0E0;" d="M469.408,0.248l-9.266,1.483c6.641,3.009,11.388,9.667,11.388,17.603v91.334v257.337h-0.011
		c-0.22,40.689-30.718,74.186-70.11,79.153c3.321,0.418,6.695,0.66,10.129,0.66c44.175,0,80.004-35.694,80.244-79.813h0.011V110.667
		V19.334C491.793,7.44,481.152-1.632,469.408,0.248z"/>
	<circle style="fill:#ABB0E0;" cx="95.905" cy="413.699" r="25.052"/>
	<circle style="fill:#ABB0E0;" cx="50.935" cy="419.651" r="7.987"/>
	<circle style="fill:#ABB0E0;" cx="407.442" cy="349.315" r="25.052"/>
	<circle style="fill:#ABB0E0;" cx="363.738" cy="356.559" r="7.987"/>
</g>
<g>
</g>
<g>
</g>
<g>
</g>
<g>
</g>
<g>
</g>
<g>
</g>
<g>
</g>
<g>
</g>
<g>
</g>
<g>
</g>
<g>
</g>
<g>
</g>
<g>
</g>
<g>
</g>
<g>
</g>
</svg>
