<?xml version="1.0"?>
<svg xmlns="http://www.w3.org/2000/svg" xmlns:xlink="http://www.w3.org/1999/xlink" xmlns:svgjs="http://svgjs.com/svgjs" version="1.1" width="512" height="512" x="0" y="0" viewBox="0 0 512 512" style="enable-background:new 0 0 512 512" xml:space="preserve" class=""><g><linearGradient xmlns="http://www.w3.org/2000/svg" id="SVGID_1_" gradientUnits="userSpaceOnUse" x1="256" x2="256" y1="451.005" y2="60.995"><stop stop-opacity="1" stop-color="#124160" offset="0"/><stop stop-opacity="1" stop-color="#3696d5" offset="1"/></linearGradient><linearGradient xmlns="http://www.w3.org/2000/svg" id="SVGID_2_" gradientUnits="userSpaceOnUse" x1="256" x2="256" y1="360.995" y2="150.995"><stop stop-opacity="1" stop-color="#addcff" offset="0"/><stop stop-opacity="1" stop-color="#eaf6ff" offset="0.5028"/><stop stop-opacity="1" stop-color="#e9f6ff" offset="1"/></linearGradient><g xmlns="http://www.w3.org/2000/svg"><g><g><path d="m497 60.995h-91c-8.291 0-15 6.709-15 15 0 8.276-6.738 15-15 15s-15-6.724-15-15c0-8.291-6.709-15-15-15h-60c-8.291 0-15 6.709-15 15 0 8.276-6.738 15-15 15s-15-6.724-15-15c0-8.291-6.709-15-15-15h-60c-8.291 0-15 6.709-15 15 0 8.276-6.738 15-15 15s-15-6.724-15-15c0-8.291-6.709-15-15-15h-91c-8.291 0-15 6.709-15 15v360c0 5.2 2.695 10.02 7.119 12.759 4.365 2.725 9.932 2.974 14.59.659l24.291-11.645 23.291 11.646c4.219 2.109 9.199 2.109 13.418 0l23.291-11.646 23.291 11.646c4.219 2.109 9.199 2.109 13.418 0l23.291-11.646 23.291 11.646c4.219 2.109 9.199 2.109 13.418 0l23.291-11.646 23.291 11.646c4.219 2.109 9.199 2.109 13.418 0l23.291-11.646 23.291 11.646c4.219 2.109 9.199 2.109 13.418 0l23.291-11.646 23.291 11.646c4.219 2.109 9.199 2.109 13.418 0l23.291-11.646 23.291 11.646c4.219 2.109 9.204 2.107 13.418 0l23.291-11.646 24.291 11.646c4.629 2.329 10.195 2.095 14.59-.659 4.424-2.739 7.119-7.559 7.119-12.759v-360c0-8.292-6.709-15.001-15-15.001z" fill="url(#SVGID_1_)" data-original="url(#SVGID_1_)" style=""/></g></g><g><g><path d="m436 270.995h-360c-8.291 0-15 6.709-15 15s6.709 15 15 15h360c8.291 0 15-6.709 15-15s-6.709-15-15-15zm-360-30h360c8.291 0 15-6.709 15-15s-6.709-15-15-15h-360c-8.291 0-15 6.709-15 15s6.709 15 15 15zm0-60h120c8.291 0 15-6.709 15-15s-6.709-15-15-15h-120c-8.291 0-15 6.709-15 15s6.709 15 15 15zm360 150h-120c-8.291 0-15 6.709-15 15s6.709 15 15 15h120c8.291 0 15-6.709 15-15s-6.709-15-15-15z" fill="url(#SVGID_2_)" data-original="url(#SVGID_2_)" style=""/></g></g></g></g></svg>
